<svg xmlns="http://www.w3.org/2000/svg" xmlns:xlink="http://www.w3.org/1999/xlink" width="500" zoomAndPan="magnify" viewBox="0 0 375 374.999991" height="500" preserveAspectRatio="xMidYMid meet" version="1.0"><defs><g/><clipPath id="ad30d52007"><path d="M 0 91.882812 L 78 91.882812 L 78 143 L 0 143 Z M 0 91.882812 " clip-rule="nonzero"/></clipPath><clipPath id="72c3de672f"><path d="M 39.898438 91.882812 C 17.871094 91.882812 0.0117188 109.726562 0.0117188 131.746094 C 0.0117188 134.9375 0.53125 138.34375 1.441406 141.878906 C 12.082031 143.296875 22.964844 142.878906 33.453125 140.558594 C 49.1875 137.082031 67.199219 128.90625 77.4375 118.25 C 71.898438 102.871094 57.1875 91.882812 39.898438 91.882812 Z M 12.46875 117.589844 L 12.460938 117.421875 C 12.460938 113.78125 15.414062 110.832031 19.058594 110.832031 C 19.820312 110.832031 20.554688 110.96875 21.238281 111.207031 C 21.941406 109.308594 23.765625 107.957031 25.90625 107.957031 C 28.316406 107.957031 30.332031 109.667969 30.792969 111.945312 C 30.910156 111.941406 31.027344 111.929688 31.144531 111.929688 C 34.433594 111.929688 37.144531 114.402344 37.523438 117.59375 L 12.46875 117.59375 Z M 39.292969 126.953125 L 39.289062 126.871094 C 39.289062 125.046875 40.765625 123.570312 42.585938 123.570312 C 42.96875 123.570312 43.335938 123.640625 43.675781 123.761719 C 44.027344 122.8125 44.9375 122.136719 46.007812 122.136719 C 47.214844 122.136719 48.222656 122.992188 48.453125 124.128906 C 48.511719 124.125 48.570312 124.117188 48.632812 124.117188 C 50.277344 124.117188 51.632812 125.355469 51.820312 126.949219 L 39.292969 126.949219 Z M 39.292969 126.953125 " clip-rule="nonzero"/></clipPath><linearGradient x1="166.613472" gradientTransform="matrix(0.323736, 0, 0, 0.323545, 0.0126171, 91.880978)" y1="198.552022" x2="44.780437" gradientUnits="userSpaceOnUse" y2="-24.463507" id="5590904312"><stop stop-opacity="1" stop-color="rgb(5.099487%, 43.499756%, 89.7995%)" offset="0"/><stop stop-opacity="1" stop-color="rgb(5.099487%, 43.499756%, 89.7995%)" offset="0.25"/><stop stop-opacity="1" stop-color="rgb(5.099487%, 43.499756%, 89.7995%)" offset="0.28125"/><stop stop-opacity="1" stop-color="rgb(5.099487%, 43.534851%, 89.807129%)" offset="0.289062"/><stop stop-opacity="1" stop-color="rgb(5.099487%, 43.746948%, 89.849854%)" offset="0.296875"/><stop stop-opacity="1" stop-color="rgb(5.099487%, 44.099426%, 89.920044%)" offset="0.304688"/><stop stop-opacity="1" stop-color="rgb(5.099487%, 44.451904%, 89.99176%)" offset="0.3125"/><stop stop-opacity="1" stop-color="rgb(5.099487%, 44.804382%, 90.063477%)" offset="0.320312"/><stop stop-opacity="1" stop-color="rgb(5.099487%, 45.15686%, 90.135193%)" offset="0.328125"/><stop stop-opacity="1" stop-color="rgb(5.099487%, 45.509338%, 90.206909%)" offset="0.335937"/><stop stop-opacity="1" stop-color="rgb(5.099487%, 45.861816%, 90.278625%)" offset="0.34375"/><stop stop-opacity="1" stop-color="rgb(5.099487%, 46.214294%, 90.350342%)" offset="0.351562"/><stop stop-opacity="1" stop-color="rgb(5.099487%, 46.566772%, 90.420532%)" offset="0.359375"/><stop stop-opacity="1" stop-color="rgb(5.099487%, 46.91925%, 90.492249%)" offset="0.367187"/><stop stop-opacity="1" stop-color="rgb(5.099487%, 47.270203%, 90.563965%)" offset="0.375"/><stop stop-opacity="1" stop-color="rgb(5.099487%, 47.622681%, 90.635681%)" offset="0.382812"/><stop stop-opacity="1" stop-color="rgb(5.099487%, 47.975159%, 90.707397%)" offset="0.390625"/><stop stop-opacity="1" stop-color="rgb(5.099487%, 48.327637%, 90.779114%)" offset="0.398437"/><stop stop-opacity="1" stop-color="rgb(5.099487%, 48.680115%, 90.85083%)" offset="0.40625"/><stop stop-opacity="1" stop-color="rgb(5.099487%, 49.032593%, 90.921021%)" offset="0.414062"/><stop stop-opacity="1" stop-color="rgb(5.099487%, 49.385071%, 90.992737%)" offset="0.421875"/><stop stop-opacity="1" stop-color="rgb(5.099487%, 49.737549%, 91.064453%)" offset="0.429687"/><stop stop-opacity="1" stop-color="rgb(5.099487%, 50.090027%, 91.136169%)" offset="0.4375"/><stop stop-opacity="1" stop-color="rgb(5.099487%, 50.442505%, 91.207886%)" offset="0.445312"/><stop stop-opacity="1" stop-color="rgb(5.099487%, 50.794983%, 91.279602%)" offset="0.451191"/><stop stop-opacity="1" stop-color="rgb(5.099487%, 50.970459%, 91.316223%)" offset="0.453125"/><stop stop-opacity="1" stop-color="rgb(5.099487%, 51.145935%, 91.351318%)" offset="0.460937"/><stop stop-opacity="1" stop-color="rgb(5.099487%, 51.498413%, 91.423035%)" offset="0.46875"/><stop stop-opacity="1" stop-color="rgb(5.099487%, 51.850891%, 91.493225%)" offset="0.476562"/><stop stop-opacity="1" stop-color="rgb(5.099487%, 52.203369%, 91.564941%)" offset="0.484375"/><stop stop-opacity="1" stop-color="rgb(5.099487%, 52.555847%, 91.636658%)" offset="0.492187"/><stop stop-opacity="1" stop-color="rgb(5.099487%, 52.908325%, 91.708374%)" offset="0.5"/><stop stop-opacity="1" stop-color="rgb(5.099487%, 53.260803%, 91.78009%)" offset="0.507812"/><stop stop-opacity="1" stop-color="rgb(5.099487%, 53.613281%, 91.851807%)" offset="0.515625"/><stop stop-opacity="1" stop-color="rgb(5.099487%, 53.965759%, 91.923523%)" offset="0.523437"/><stop stop-opacity="1" stop-color="rgb(5.099487%, 54.318237%, 91.993713%)" offset="0.53125"/><stop stop-opacity="1" stop-color="rgb(5.099487%, 54.669189%, 92.06543%)" offset="0.539062"/><stop stop-opacity="1" stop-color="rgb(5.099487%, 55.021667%, 92.137146%)" offset="0.546875"/><stop stop-opacity="1" stop-color="rgb(5.099487%, 55.374146%, 92.208862%)" offset="0.548809"/><stop stop-opacity="1" stop-color="rgb(5.099487%, 55.551147%, 92.245483%)" offset="0.554687"/><stop stop-opacity="1" stop-color="rgb(5.099487%, 55.726624%, 92.280579%)" offset="0.5625"/><stop stop-opacity="1" stop-color="rgb(5.099487%, 56.079102%, 92.352295%)" offset="0.570312"/><stop stop-opacity="1" stop-color="rgb(5.099487%, 56.43158%, 92.424011%)" offset="0.578125"/><stop stop-opacity="1" stop-color="rgb(5.099487%, 56.784058%, 92.494202%)" offset="0.585937"/><stop stop-opacity="1" stop-color="rgb(5.099487%, 57.136536%, 92.565918%)" offset="0.59375"/><stop stop-opacity="1" stop-color="rgb(5.099487%, 57.489014%, 92.637634%)" offset="0.601562"/><stop stop-opacity="1" stop-color="rgb(5.099487%, 57.841492%, 92.709351%)" offset="0.609375"/><stop stop-opacity="1" stop-color="rgb(5.099487%, 58.19397%, 92.781067%)" offset="0.617187"/><stop stop-opacity="1" stop-color="rgb(5.099487%, 58.544922%, 92.852783%)" offset="0.625"/><stop stop-opacity="1" stop-color="rgb(5.099487%, 58.8974%, 92.9245%)" offset="0.632812"/><stop stop-opacity="1" stop-color="rgb(5.099487%, 59.249878%, 92.99469%)" offset="0.640625"/><stop stop-opacity="1" stop-color="rgb(5.099487%, 59.602356%, 93.066406%)" offset="0.648437"/><stop stop-opacity="1" stop-color="rgb(5.099487%, 59.954834%, 93.138123%)" offset="0.65625"/><stop stop-opacity="1" stop-color="rgb(5.099487%, 60.307312%, 93.209839%)" offset="0.664062"/><stop stop-opacity="1" stop-color="rgb(5.099487%, 60.65979%, 93.281555%)" offset="0.671875"/><stop stop-opacity="1" stop-color="rgb(5.099487%, 61.012268%, 93.353271%)" offset="0.679687"/><stop stop-opacity="1" stop-color="rgb(5.099487%, 61.364746%, 93.424988%)" offset="0.6875"/><stop stop-opacity="1" stop-color="rgb(5.099487%, 61.717224%, 93.496704%)" offset="0.695312"/><stop stop-opacity="1" stop-color="rgb(5.099487%, 62.068176%, 93.566895%)" offset="0.703125"/><stop stop-opacity="1" stop-color="rgb(5.099487%, 62.420654%, 93.638611%)" offset="0.710937"/><stop stop-opacity="1" stop-color="rgb(5.099487%, 62.773132%, 93.710327%)" offset="0.71875"/><stop stop-opacity="1" stop-color="rgb(5.099487%, 63.12561%, 93.782043%)" offset="0.726562"/><stop stop-opacity="1" stop-color="rgb(5.099487%, 63.478088%, 93.85376%)" offset="0.734375"/><stop stop-opacity="1" stop-color="rgb(5.099487%, 63.830566%, 93.925476%)" offset="0.742187"/><stop stop-opacity="1" stop-color="rgb(5.099487%, 64.183044%, 93.997192%)" offset="0.75"/><stop stop-opacity="1" stop-color="rgb(5.099487%, 64.535522%, 94.067383%)" offset="0.757812"/><stop stop-opacity="1" stop-color="rgb(5.099487%, 64.888%, 94.139099%)" offset="0.765625"/><stop stop-opacity="1" stop-color="rgb(5.099487%, 65.240479%, 94.210815%)" offset="0.773437"/><stop stop-opacity="1" stop-color="rgb(5.099487%, 65.592957%, 94.282532%)" offset="0.78125"/><stop stop-opacity="1" stop-color="rgb(5.099487%, 65.943909%, 94.354248%)" offset="0.789062"/><stop stop-opacity="1" stop-color="rgb(5.099487%, 66.296387%, 94.425964%)" offset="0.796875"/><stop stop-opacity="1" stop-color="rgb(5.099487%, 66.648865%, 94.497681%)" offset="0.804687"/><stop stop-opacity="1" stop-color="rgb(5.099487%, 67.001343%, 94.567871%)" offset="0.8125"/><stop stop-opacity="1" stop-color="rgb(5.099487%, 67.353821%, 94.639587%)" offset="0.820312"/><stop stop-opacity="1" stop-color="rgb(5.099487%, 67.706299%, 94.711304%)" offset="0.828125"/><stop stop-opacity="1" stop-color="rgb(5.099487%, 68.058777%, 94.78302%)" offset="0.835937"/><stop stop-opacity="1" stop-color="rgb(5.099487%, 68.411255%, 94.854736%)" offset="0.84375"/><stop stop-opacity="1" stop-color="rgb(5.099487%, 68.763733%, 94.926453%)" offset="0.851562"/><stop stop-opacity="1" stop-color="rgb(5.099487%, 69.116211%, 94.998169%)" offset="0.859375"/><stop stop-opacity="1" stop-color="rgb(5.099487%, 69.468689%, 95.068359%)" offset="0.867187"/><stop stop-opacity="1" stop-color="rgb(5.099487%, 69.819641%, 95.140076%)" offset="0.875"/><stop stop-opacity="1" stop-color="rgb(5.099487%, 70.172119%, 95.211792%)" offset="0.882812"/><stop stop-opacity="1" stop-color="rgb(5.099487%, 70.474243%, 95.272827%)" offset="0.890625"/><stop stop-opacity="1" stop-color="rgb(5.099487%, 70.599365%, 95.298767%)" offset="0.90625"/><stop stop-opacity="1" stop-color="rgb(5.099487%, 70.599365%, 95.298767%)" offset="0.9375"/><stop stop-opacity="1" stop-color="rgb(5.099487%, 70.599365%, 95.298767%)" offset="1"/></linearGradient><clipPath id="80a266606d"><path d="M 16 122 L 80 122 L 80 204.382812 L 16 204.382812 Z M 16 122 " clip-rule="nonzero"/></clipPath><clipPath id="b3cb1c535d"><path d="M 79.785156 131.746094 C 79.785156 159.476562 39.898438 204.382812 39.898438 204.382812 C 39.898438 204.382812 27.496094 190.53125 16.515625 173.40625 C 27.195312 169.300781 37.53125 164.445312 47.046875 158.128906 C 60.433594 149.238281 72.171875 137.082031 78.710938 122.566406 C 79.414062 125.519531 79.785156 128.585938 79.785156 131.746094 Z M 79.785156 131.746094 " clip-rule="nonzero"/></clipPath><linearGradient x1="207.256415" gradientTransform="matrix(0.323736, 0, 0, 0.323545, 0.0126171, 91.880978)" y1="360.323121" x2="115.080011" gradientUnits="userSpaceOnUse" y2="74.190418" id="5752fb7212"><stop stop-opacity="1" stop-color="rgb(0%, 88.198853%, 57.998657%)" offset="0"/><stop stop-opacity="1" stop-color="rgb(0%, 88.198853%, 57.998657%)" offset="0.0625"/><stop stop-opacity="1" stop-color="rgb(0.012207%, 88.052368%, 58.123779%)" offset="0.078125"/><stop stop-opacity="1" stop-color="rgb(0.0366211%, 87.757874%, 58.375549%)" offset="0.0859375"/><stop stop-opacity="1" stop-color="rgb(0.0610352%, 87.460327%, 58.628845%)" offset="0.09375"/><stop stop-opacity="1" stop-color="rgb(0.0854492%, 87.161255%, 58.883667%)" offset="0.101562"/><stop stop-opacity="1" stop-color="rgb(0.111389%, 86.863708%, 59.138489%)" offset="0.109375"/><stop stop-opacity="1" stop-color="rgb(0.135803%, 86.564636%, 59.393311%)" offset="0.117188"/><stop stop-opacity="1" stop-color="rgb(0.160217%, 86.26709%, 59.648132%)" offset="0.125"/><stop stop-opacity="1" stop-color="rgb(0.186157%, 85.969543%, 59.901428%)" offset="0.132812"/><stop stop-opacity="1" stop-color="rgb(0.210571%, 85.670471%, 60.15625%)" offset="0.140625"/><stop stop-opacity="1" stop-color="rgb(0.234985%, 85.372925%, 60.411072%)" offset="0.148437"/><stop stop-opacity="1" stop-color="rgb(0.260925%, 85.073853%, 60.665894%)" offset="0.15625"/><stop stop-opacity="1" stop-color="rgb(0.285339%, 84.776306%, 60.920715%)" offset="0.164062"/><stop stop-opacity="1" stop-color="rgb(0.309753%, 84.47876%, 61.174011%)" offset="0.171875"/><stop stop-opacity="1" stop-color="rgb(0.335693%, 84.179688%, 61.428833%)" offset="0.179687"/><stop stop-opacity="1" stop-color="rgb(0.360107%, 83.882141%, 61.683655%)" offset="0.1875"/><stop stop-opacity="1" stop-color="rgb(0.384521%, 83.583069%, 61.938477%)" offset="0.195312"/><stop stop-opacity="1" stop-color="rgb(0.410461%, 83.285522%, 62.191772%)" offset="0.19934"/><stop stop-opacity="1" stop-color="rgb(0.422668%, 83.137512%, 62.319946%)" offset="0.203125"/><stop stop-opacity="1" stop-color="rgb(0.434875%, 82.987976%, 62.446594%)" offset="0.210937"/><stop stop-opacity="1" stop-color="rgb(0.45929%, 82.688904%, 62.701416%)" offset="0.21875"/><stop stop-opacity="1" stop-color="rgb(0.485229%, 82.391357%, 62.956238%)" offset="0.226562"/><stop stop-opacity="1" stop-color="rgb(0.509644%, 82.092285%, 63.21106%)" offset="0.234375"/><stop stop-opacity="1" stop-color="rgb(0.535583%, 81.794739%, 63.464355%)" offset="0.242188"/><stop stop-opacity="1" stop-color="rgb(0.559998%, 81.497192%, 63.719177%)" offset="0.25"/><stop stop-opacity="1" stop-color="rgb(0.584412%, 81.19812%, 63.973999%)" offset="0.257812"/><stop stop-opacity="1" stop-color="rgb(0.610352%, 80.900574%, 64.228821%)" offset="0.265625"/><stop stop-opacity="1" stop-color="rgb(0.634766%, 80.601501%, 64.483643%)" offset="0.273437"/><stop stop-opacity="1" stop-color="rgb(0.65918%, 80.303955%, 64.736938%)" offset="0.28125"/><stop stop-opacity="1" stop-color="rgb(0.68512%, 80.006409%, 64.99176%)" offset="0.289062"/><stop stop-opacity="1" stop-color="rgb(0.709534%, 79.707336%, 65.246582%)" offset="0.296875"/><stop stop-opacity="1" stop-color="rgb(0.733948%, 79.40979%, 65.501404%)" offset="0.304687"/><stop stop-opacity="1" stop-color="rgb(0.759888%, 79.110718%, 65.7547%)" offset="0.3125"/><stop stop-opacity="1" stop-color="rgb(0.784302%, 78.813171%, 66.009521%)" offset="0.320312"/><stop stop-opacity="1" stop-color="rgb(0.808716%, 78.514099%, 66.264343%)" offset="0.328125"/><stop stop-opacity="1" stop-color="rgb(0.834656%, 78.216553%, 66.519165%)" offset="0.335938"/><stop stop-opacity="1" stop-color="rgb(0.85907%, 77.919006%, 66.773987%)" offset="0.34375"/><stop stop-opacity="1" stop-color="rgb(0.883484%, 77.619934%, 67.027283%)" offset="0.351562"/><stop stop-opacity="1" stop-color="rgb(0.909424%, 77.322388%, 67.282104%)" offset="0.359375"/><stop stop-opacity="1" stop-color="rgb(0.933838%, 77.023315%, 67.536926%)" offset="0.367188"/><stop stop-opacity="1" stop-color="rgb(0.959778%, 76.725769%, 67.791748%)" offset="0.375"/><stop stop-opacity="1" stop-color="rgb(0.984192%, 76.428223%, 68.04657%)" offset="0.382812"/><stop stop-opacity="1" stop-color="rgb(1.008606%, 76.12915%, 68.299866%)" offset="0.390625"/><stop stop-opacity="1" stop-color="rgb(1.034546%, 75.831604%, 68.554688%)" offset="0.398438"/><stop stop-opacity="1" stop-color="rgb(1.05896%, 75.532532%, 68.809509%)" offset="0.40625"/><stop stop-opacity="1" stop-color="rgb(1.083374%, 75.234985%, 69.064331%)" offset="0.414062"/><stop stop-opacity="1" stop-color="rgb(1.109314%, 74.937439%, 69.317627%)" offset="0.421875"/><stop stop-opacity="1" stop-color="rgb(1.133728%, 74.638367%, 69.572449%)" offset="0.429688"/><stop stop-opacity="1" stop-color="rgb(1.158142%, 74.34082%, 69.827271%)" offset="0.4375"/><stop stop-opacity="1" stop-color="rgb(1.184082%, 74.041748%, 70.082092%)" offset="0.445313"/><stop stop-opacity="1" stop-color="rgb(1.208496%, 73.744202%, 70.336914%)" offset="0.453125"/><stop stop-opacity="1" stop-color="rgb(1.23291%, 73.446655%, 70.59021%)" offset="0.460938"/><stop stop-opacity="1" stop-color="rgb(1.25885%, 73.147583%, 70.845032%)" offset="0.46875"/><stop stop-opacity="1" stop-color="rgb(1.283264%, 72.850037%, 71.099854%)" offset="0.476563"/><stop stop-opacity="1" stop-color="rgb(1.307678%, 72.550964%, 71.354675%)" offset="0.484375"/><stop stop-opacity="1" stop-color="rgb(1.333618%, 72.253418%, 71.609497%)" offset="0.492188"/><stop stop-opacity="1" stop-color="rgb(1.358032%, 71.955872%, 71.862793%)" offset="0.5"/><stop stop-opacity="1" stop-color="rgb(1.382446%, 71.656799%, 72.117615%)" offset="0.507812"/><stop stop-opacity="1" stop-color="rgb(1.408386%, 71.359253%, 72.372437%)" offset="0.515625"/><stop stop-opacity="1" stop-color="rgb(1.4328%, 71.060181%, 72.627258%)" offset="0.523438"/><stop stop-opacity="1" stop-color="rgb(1.45874%, 70.762634%, 72.88208%)" offset="0.53125"/><stop stop-opacity="1" stop-color="rgb(1.483154%, 70.465088%, 73.135376%)" offset="0.539062"/><stop stop-opacity="1" stop-color="rgb(1.507568%, 70.166016%, 73.390198%)" offset="0.546875"/><stop stop-opacity="1" stop-color="rgb(1.533508%, 69.868469%, 73.64502%)" offset="0.554688"/><stop stop-opacity="1" stop-color="rgb(1.557922%, 69.569397%, 73.899841%)" offset="0.5625"/><stop stop-opacity="1" stop-color="rgb(1.582336%, 69.271851%, 74.153137%)" offset="0.570312"/><stop stop-opacity="1" stop-color="rgb(1.608276%, 68.974304%, 74.407959%)" offset="0.578125"/><stop stop-opacity="1" stop-color="rgb(1.63269%, 68.675232%, 74.662781%)" offset="0.585938"/><stop stop-opacity="1" stop-color="rgb(1.657104%, 68.377686%, 74.917603%)" offset="0.59375"/><stop stop-opacity="1" stop-color="rgb(1.683044%, 68.078613%, 75.172424%)" offset="0.601562"/><stop stop-opacity="1" stop-color="rgb(1.707458%, 67.781067%, 75.42572%)" offset="0.609375"/><stop stop-opacity="1" stop-color="rgb(1.731873%, 67.483521%, 75.680542%)" offset="0.617188"/><stop stop-opacity="1" stop-color="rgb(1.757812%, 67.184448%, 75.935364%)" offset="0.625"/><stop stop-opacity="1" stop-color="rgb(1.782227%, 66.886902%, 76.190186%)" offset="0.632812"/><stop stop-opacity="1" stop-color="rgb(1.806641%, 66.58783%, 76.445007%)" offset="0.640625"/><stop stop-opacity="1" stop-color="rgb(1.832581%, 66.290283%, 76.698303%)" offset="0.648438"/><stop stop-opacity="1" stop-color="rgb(1.856995%, 65.992737%, 76.953125%)" offset="0.65625"/><stop stop-opacity="1" stop-color="rgb(1.882935%, 65.693665%, 77.207947%)" offset="0.664062"/><stop stop-opacity="1" stop-color="rgb(1.907349%, 65.396118%, 77.462769%)" offset="0.671875"/><stop stop-opacity="1" stop-color="rgb(1.931763%, 65.097046%, 77.716064%)" offset="0.679688"/><stop stop-opacity="1" stop-color="rgb(1.957703%, 64.7995%, 77.970886%)" offset="0.6875"/><stop stop-opacity="1" stop-color="rgb(1.983643%, 64.474487%, 78.248596%)" offset="0.75"/><stop stop-opacity="1" stop-color="rgb(1.998901%, 64.299011%, 78.399658%)" offset="0.80066"/><stop stop-opacity="1" stop-color="rgb(1.998901%, 64.299011%, 78.399658%)" offset="1"/></linearGradient><clipPath id="7a7d534573"><path d="M 79 93 L 102.75 93 L 102.75 118 L 79 118 Z M 79 93 " clip-rule="nonzero"/></clipPath><clipPath id="4f5d8206e1"><path d="M 102.722656 94.351562 L 102.515625 96.75 C 102.414062 97.335938 101.984375 98.152344 101.558594 98.570312 L 98.875 101.191406 C 98.449219 101.609375 98.246094 102.410156 98.421875 102.980469 L 101.234375 112.117188 C 101.414062 112.691406 101.398438 113.609375 101.207031 114.175781 L 101.175781 114.253906 C 100.984375 114.820312 100.5625 114.867188 100.238281 114.367188 L 94.914062 106.148438 C 94.589844 105.652344 93.960938 105.5625 93.511719 105.953125 L 88.222656 110.570312 C 87.777344 110.960938 87.503906 111.753906 87.617188 112.339844 L 88.09375 114.828125 C 88.210938 115.410156 88.175781 116.265625 88.019531 116.734375 C 87.863281 117.203125 87.46875 117.183594 87.136719 116.695312 L 85.382812 114.109375 C 85.046875 113.625 84.515625 113.453125 84.195312 113.742188 C 83.875 114.035156 83.4375 114.285156 83.210938 114.296875 C 82.984375 114.3125 82.8125 114.171875 82.820312 113.988281 C 82.832031 113.804688 83.007812 113.339844 83.230469 112.953125 C 83.445312 112.566406 83.1875 112.039062 82.652344 111.773438 L 82.507812 111.703125 C 82.511719 111.6875 82.511719 111.671875 82.515625 111.660156 C 82.511719 111.671875 82.5 111.683594 82.496094 111.695312 L 80.5 110.707031 C 79.96875 110.449219 79.671875 110.054688 79.839844 109.835938 C 80.011719 109.621094 80.628906 109.472656 81.226562 109.507812 L 84.777344 109.703125 C 85.371094 109.738281 86.121094 109.359375 86.445312 108.859375 L 90.074219 103.300781 C 90.402344 102.804688 90.246094 102.164062 89.722656 101.871094 L 81.589844 97.351562 C 81.066406 97.066406 80.980469 96.648438 81.390625 96.429688 C 81.796875 96.214844 82.601562 96.144531 83.183594 96.273438 L 93.238281 98.222656 C 93.820312 98.355469 94.613281 98.101562 95.007812 97.652344 L 97.664062 94.738281 C 98.0625 94.289062 98.855469 93.84375 99.445312 93.746094 L 101.835938 93.464844 C 102.425781 93.367188 102.820312 93.765625 102.722656 94.351562 Z M 102.722656 94.351562 " clip-rule="nonzero"/></clipPath><linearGradient x1="274.569615" gradientTransform="matrix(0.323736, 0, 0, 0.323545, 0.0126171, 91.880978)" y1="-1.695601" x2="293.365557" gradientUnits="userSpaceOnUse" y2="83.557627" id="1f967e86a3"><stop stop-opacity="1" stop-color="rgb(5.099487%, 44.961548%, 90.09552%)" offset="0"/><stop stop-opacity="1" stop-color="rgb(5.099487%, 45.153809%, 90.135193%)" offset="0.015625"/><stop stop-opacity="1" stop-color="rgb(5.099487%, 45.539856%, 90.213013%)" offset="0.03125"/><stop stop-opacity="1" stop-color="rgb(5.099487%, 45.927429%, 90.292358%)" offset="0.046875"/><stop stop-opacity="1" stop-color="rgb(5.099487%, 46.313477%, 90.370178%)" offset="0.0625"/><stop stop-opacity="1" stop-color="rgb(5.099487%, 46.699524%, 90.447998%)" offset="0.078125"/><stop stop-opacity="1" stop-color="rgb(5.099487%, 47.087097%, 90.527344%)" offset="0.09375"/><stop stop-opacity="1" stop-color="rgb(5.099487%, 47.473145%, 90.605164%)" offset="0.109375"/><stop stop-opacity="1" stop-color="rgb(5.099487%, 47.859192%, 90.684509%)" offset="0.125"/><stop stop-opacity="1" stop-color="rgb(5.099487%, 48.246765%, 90.762329%)" offset="0.140625"/><stop stop-opacity="1" stop-color="rgb(5.099487%, 48.632812%, 90.840149%)" offset="0.15625"/><stop stop-opacity="1" stop-color="rgb(5.099487%, 49.01886%, 90.919495%)" offset="0.171875"/><stop stop-opacity="1" stop-color="rgb(5.099487%, 49.406433%, 90.997314%)" offset="0.175813"/><stop stop-opacity="1" stop-color="rgb(5.099487%, 49.60022%, 91.036987%)" offset="0.1875"/><stop stop-opacity="1" stop-color="rgb(5.099487%, 49.79248%, 91.07666%)" offset="0.203125"/><stop stop-opacity="1" stop-color="rgb(5.099487%, 50.178528%, 91.15448%)" offset="0.21875"/><stop stop-opacity="1" stop-color="rgb(5.099487%, 50.566101%, 91.2323%)" offset="0.234375"/><stop stop-opacity="1" stop-color="rgb(5.099487%, 50.952148%, 91.311646%)" offset="0.25"/><stop stop-opacity="1" stop-color="rgb(5.099487%, 51.338196%, 91.389465%)" offset="0.265625"/><stop stop-opacity="1" stop-color="rgb(5.099487%, 51.725769%, 91.468811%)" offset="0.28125"/><stop stop-opacity="1" stop-color="rgb(5.099487%, 52.111816%, 91.546631%)" offset="0.296875"/><stop stop-opacity="1" stop-color="rgb(5.099487%, 52.497864%, 91.625977%)" offset="0.3125"/><stop stop-opacity="1" stop-color="rgb(5.099487%, 52.885437%, 91.703796%)" offset="0.328125"/><stop stop-opacity="1" stop-color="rgb(5.099487%, 53.271484%, 91.781616%)" offset="0.34375"/><stop stop-opacity="1" stop-color="rgb(5.099487%, 53.657532%, 91.860962%)" offset="0.359375"/><stop stop-opacity="1" stop-color="rgb(5.099487%, 54.045105%, 91.938782%)" offset="0.375"/><stop stop-opacity="1" stop-color="rgb(5.099487%, 54.431152%, 92.018127%)" offset="0.390625"/><stop stop-opacity="1" stop-color="rgb(5.099487%, 54.8172%, 92.095947%)" offset="0.40625"/><stop stop-opacity="1" stop-color="rgb(5.099487%, 55.204773%, 92.173767%)" offset="0.421875"/><stop stop-opacity="1" stop-color="rgb(5.099487%, 55.59082%, 92.253113%)" offset="0.4375"/><stop stop-opacity="1" stop-color="rgb(5.099487%, 55.976868%, 92.330933%)" offset="0.453125"/><stop stop-opacity="1" stop-color="rgb(5.099487%, 56.364441%, 92.410278%)" offset="0.46875"/><stop stop-opacity="1" stop-color="rgb(5.099487%, 56.750488%, 92.488098%)" offset="0.484375"/><stop stop-opacity="1" stop-color="rgb(5.099487%, 57.136536%, 92.567444%)" offset="0.5"/><stop stop-opacity="1" stop-color="rgb(5.099487%, 57.524109%, 92.645264%)" offset="0.515625"/><stop stop-opacity="1" stop-color="rgb(5.099487%, 57.910156%, 92.723083%)" offset="0.53125"/><stop stop-opacity="1" stop-color="rgb(5.099487%, 58.296204%, 92.802429%)" offset="0.546875"/><stop stop-opacity="1" stop-color="rgb(5.099487%, 58.683777%, 92.880249%)" offset="0.5625"/><stop stop-opacity="1" stop-color="rgb(5.099487%, 59.069824%, 92.959595%)" offset="0.578125"/><stop stop-opacity="1" stop-color="rgb(5.099487%, 59.455872%, 93.037415%)" offset="0.59375"/><stop stop-opacity="1" stop-color="rgb(5.099487%, 59.843445%, 93.115234%)" offset="0.609375"/><stop stop-opacity="1" stop-color="rgb(5.099487%, 60.229492%, 93.19458%)" offset="0.625"/><stop stop-opacity="1" stop-color="rgb(5.099487%, 60.61554%, 93.2724%)" offset="0.640625"/><stop stop-opacity="1" stop-color="rgb(5.099487%, 61.003113%, 93.351746%)" offset="0.65625"/><stop stop-opacity="1" stop-color="rgb(5.099487%, 61.38916%, 93.429565%)" offset="0.671875"/><stop stop-opacity="1" stop-color="rgb(5.099487%, 61.775208%, 93.508911%)" offset="0.6875"/><stop stop-opacity="1" stop-color="rgb(5.099487%, 62.162781%, 93.586731%)" offset="0.703125"/><stop stop-opacity="1" stop-color="rgb(5.099487%, 62.548828%, 93.664551%)" offset="0.71875"/><stop stop-opacity="1" stop-color="rgb(5.099487%, 62.936401%, 93.743896%)" offset="0.734375"/><stop stop-opacity="1" stop-color="rgb(5.099487%, 63.322449%, 93.821716%)" offset="0.75"/><stop stop-opacity="1" stop-color="rgb(5.099487%, 63.708496%, 93.901062%)" offset="0.765625"/><stop stop-opacity="1" stop-color="rgb(5.099487%, 64.096069%, 93.978882%)" offset="0.78125"/><stop stop-opacity="1" stop-color="rgb(5.099487%, 64.482117%, 94.056702%)" offset="0.796875"/><stop stop-opacity="1" stop-color="rgb(5.099487%, 64.868164%, 94.136047%)" offset="0.8125"/><stop stop-opacity="1" stop-color="rgb(5.099487%, 65.255737%, 94.213867%)" offset="0.824187"/><stop stop-opacity="1" stop-color="rgb(5.099487%, 65.449524%, 94.25354%)" offset="0.828125"/><stop stop-opacity="1" stop-color="rgb(5.099487%, 65.641785%, 94.293213%)" offset="0.84375"/><stop stop-opacity="1" stop-color="rgb(5.099487%, 66.027832%, 94.371033%)" offset="0.859375"/><stop stop-opacity="1" stop-color="rgb(5.099487%, 66.415405%, 94.450378%)" offset="0.875"/><stop stop-opacity="1" stop-color="rgb(5.099487%, 66.801453%, 94.528198%)" offset="0.890625"/><stop stop-opacity="1" stop-color="rgb(5.099487%, 67.1875%, 94.606018%)" offset="0.90625"/><stop stop-opacity="1" stop-color="rgb(5.099487%, 67.575073%, 94.685364%)" offset="0.921875"/><stop stop-opacity="1" stop-color="rgb(5.099487%, 67.961121%, 94.763184%)" offset="0.9375"/><stop stop-opacity="1" stop-color="rgb(5.099487%, 68.347168%, 94.842529%)" offset="0.953125"/><stop stop-opacity="1" stop-color="rgb(5.099487%, 68.734741%, 94.920349%)" offset="0.96875"/><stop stop-opacity="1" stop-color="rgb(5.099487%, 69.120789%, 94.998169%)" offset="0.984375"/><stop stop-opacity="1" stop-color="rgb(5.099487%, 69.506836%, 95.077515%)" offset="1"/></linearGradient><clipPath id="2eaf50cb6b"><path d="M 82 111 L 83 111 L 83 112 L 82 112 Z M 82 111 " clip-rule="nonzero"/></clipPath><clipPath id="78631e2490"><path d="M 82.492188 111.691406 L 82.5 111.699219 C 82.503906 111.683594 82.507812 111.667969 82.511719 111.65625 C 82.503906 111.667969 82.496094 111.683594 82.492188 111.691406 Z M 82.492188 111.691406 " clip-rule="nonzero"/></clipPath><linearGradient x1="-1899.397122" gradientTransform="matrix(-0.0806687, 0.31334, -0.313525, -0.0806211, -680.011089, 550.148152)" y1="-1943.262119" x2="-1899.467573" gradientUnits="userSpaceOnUse" y2="-1943.39108" id="2a75805fa8"><stop stop-opacity="1" stop-color="rgb(5.099487%, 58.894348%, 92.9245%)" offset="0"/><stop stop-opacity="1" stop-color="rgb(5.099487%, 58.8974%, 92.9245%)" offset="0.459526"/><stop stop-opacity="1" stop-color="rgb(5.099487%, 58.901978%, 92.9245%)" offset="0.5"/><stop stop-opacity="1" stop-color="rgb(5.099487%, 58.905029%, 92.9245%)" offset="0.540474"/><stop stop-opacity="1" stop-color="rgb(5.099487%, 58.909607%, 92.926025%)" offset="1"/></linearGradient></defs><g clip-path="url(#ad30d52007)"><g clip-path="url(#72c3de672f)"><path fill="url(#5590904312)" d="M 0.0117188 91.882812 L 0.0117188 143.296875 L 77.4375 143.296875 L 77.4375 91.882812 Z M 0.0117188 91.882812 " fill-rule="nonzero"/></g></g><g clip-path="url(#80a266606d)"><g clip-path="url(#b3cb1c535d)"><path fill="url(#5752fb7212)" d="M 16.515625 122.566406 L 16.515625 204.382812 L 79.785156 204.382812 L 79.785156 122.566406 Z M 16.515625 122.566406 " fill-rule="nonzero"/></g></g><g clip-path="url(#7a7d534573)"><g clip-path="url(#4f5d8206e1)"><path fill="url(#1f967e86a3)" d="M 79.671875 93.367188 L 79.671875 117.203125 L 102.75 117.203125 L 102.75 93.367188 Z M 79.671875 93.367188 " fill-rule="nonzero"/></g></g><g clip-path="url(#2eaf50cb6b)"><g clip-path="url(#78631e2490)"><path fill="url(#2a75805fa8)" d="M 82.519531 111.660156 L 82.492188 111.652344 L 82.480469 111.695312 L 82.507812 111.703125 Z M 82.519531 111.660156 " fill-rule="nonzero"/></g></g><g fill="#ffffff" fill-opacity="1"><g transform="translate(25.932854, 194.988311)"><g><path d="M 9.226562 0.464844 L 10 0.464844 L 14.011719 -9.414062 L 18.054688 0.371094 L 18.855469 0.371094 L 27.867188 -22.066406 L 22.898438 -22.066406 L 18.457031 -10.800781 L 14.136719 -21.851562 L 13.917969 -21.851562 L 9.597656 -10.800781 L 5.152344 -22.066406 L 0.183594 -22.066406 Z M 9.226562 0.464844 "/></g></g></g><g fill="#ffffff" fill-opacity="1"><g transform="translate(54.011286, 194.988311)"><g><path d="M 0.492188 0 L 5.492188 0 L 6.359375 -2.375 L 13.671875 -2.375 L 14.566406 0 L 19.535156 0 L 10.246094 -22.867188 L 9.785156 -22.867188 Z M 7.960938 -6.511719 L 10.03125 -12.253906 L 12.035156 -6.511719 Z M 7.960938 -6.511719 "/></g></g></g><g fill="#ffffff" fill-opacity="1"><g transform="translate(74.159868, 194.988311)"><g><path d="M 6.882812 -12.003906 L 18.054688 0.464844 L 19.226562 0.464844 L 19.226562 -22.035156 L 14.78125 -22.035156 L 14.78125 -9.566406 L 3.640625 -22.53125 L 2.46875 -22.53125 L 2.46875 0 L 6.882812 0 Z M 6.882812 -12.003906 "/></g></g></g><g fill="#ffffff" fill-opacity="1"><g transform="translate(95.88208, 194.988311)"><g><path d="M 9.042969 -22.066406 L 2.46875 -22.066406 L 2.46875 0 L 9.042969 0 C 23.734375 0 23.734375 -22.066406 9.042969 -22.066406 Z M 9.042969 -17.652344 C 17.621094 -17.652344 17.621094 -4.414062 9.042969 -4.414062 L 6.882812 -4.414062 L 6.882812 -17.652344 Z M 9.042969 -17.652344 "/></g></g></g><g fill="#ffffff" fill-opacity="1"><g transform="translate(117.604293, 194.988311)"><g><path d="M 13.886719 0 L 13.886719 -4.414062 L 6.882812 -4.414062 L 6.882812 -8.828125 L 12.683594 -8.828125 L 12.683594 -13.238281 L 6.882812 -13.238281 L 6.882812 -17.652344 L 13.519531 -17.652344 L 13.519531 -22.066406 L 2.46875 -22.066406 L 2.46875 0 Z M 13.886719 0 "/></g></g></g><g fill="#ffffff" fill-opacity="1"><g transform="translate(133.155428, 194.988311)"><g><path d="M 13.457031 0 L 18.457031 0 L 13.332031 -9.105469 C 19.8125 -10.988281 19.042969 -22.066406 11.171875 -22.066406 L 2.46875 -22.066406 L 2.46875 0 L 6.882812 0 L 6.882812 -8.425781 L 9.011719 -8.425781 Z M 6.882812 -12.714844 L 6.882812 -17.652344 L 10.769531 -17.652344 C 13.765625 -17.652344 13.765625 -12.714844 10.769531 -12.714844 Z M 6.882812 -12.714844 "/></g></g></g><g fill="#ffffff" fill-opacity="1"><g transform="translate(152.069798, 194.988311)"><g><path d="M 2.46875 -22.066406 L 2.46875 0 L 13.886719 0 L 13.886719 -4.414062 L 6.882812 -4.414062 L 6.882812 -22.066406 Z M 2.46875 -22.066406 "/></g></g></g><g fill="#ffffff" fill-opacity="1"><g transform="translate(167.281513, 194.988311)"><g><path d="M 18.300781 -7.683594 L 18.300781 -22.066406 L 13.917969 -22.066406 L 13.917969 -7.714844 C 13.917969 -3.085938 6.757812 -3.085938 6.757812 -7.714844 L 6.757812 -22.066406 L 2.34375 -22.066406 L 2.34375 -7.683594 C 2.34375 2.808594 18.300781 2.808594 18.300781 -7.683594 Z M 18.300781 -7.683594 "/></g></g></g><g fill="#ffffff" fill-opacity="1"><g transform="translate(187.985499, 194.988311)"><g><path d="M 1.449219 -1.417969 C 4.445312 0.125 7.191406 0.277344 8.425781 0.183594 C 12.5625 -0.03125 15.089844 -2.839844 15.089844 -6.511719 C 15.089844 -10.03125 12.128906 -12.003906 8.703125 -13.269531 C 7.4375 -13.703125 6.359375 -14.257812 6.234375 -15.492188 C 6.140625 -16.726562 6.851562 -17.871094 8.425781 -17.960938 C 9.105469 -17.992188 10.492188 -18.023438 12.929688 -17.035156 L 13.488281 -21.296875 C 10.648438 -22.28125 9.136719 -22.28125 7.992188 -22.222656 C 4.320312 -22.035156 1.757812 -19.195312 1.757812 -15.492188 C 1.757812 -11.789062 4.84375 -10.03125 8.300781 -8.765625 C 9.535156 -8.332031 10.492188 -7.777344 10.585938 -6.511719 C 10.710938 -5.308594 9.597656 -4.382812 8.300781 -4.289062 C 7.285156 -4.199219 4.535156 -4.257812 2.007812 -6.050781 Z M 1.449219 -1.417969 "/></g></g></g><g fill="#ffffff" fill-opacity="1"><g transform="translate(204.308011, 194.988311)"><g><path d="M 10.523438 0 L 10.523438 -17.652344 L 16.019531 -17.652344 L 16.019531 -22.035156 L 0.617188 -22.035156 L 0.617188 -17.652344 L 6.109375 -17.652344 L 6.109375 0 Z M 10.523438 0 "/></g></g></g><g fill="#ffffff" fill-opacity="1"><g transform="translate(221.185939, 194.988311)"><g/></g></g><g fill="#ffffff" fill-opacity="1"><g transform="translate(229.948863, 194.988311)"><g><path d="M 9.320312 0.464844 L 10.308594 0.464844 L 19.445312 -22.066406 L 14.351562 -22.066406 L 11.386719 -14.566406 L 9.8125 -10.152344 L 8.210938 -14.722656 L 5.277344 -22.066406 L 0.183594 -22.066406 Z M 9.320312 0.464844 "/></g></g></g><g fill="#ffffff" fill-opacity="1"><g transform="translate(249.603769, 194.988311)"><g><path d="M 13.085938 0.308594 C 28.269531 0.308594 28.269531 -22.4375 13.085938 -22.4375 C -2.097656 -22.4375 -2.097656 0.308594 13.085938 0.308594 Z M 13.085938 -4.257812 C 4.257812 -4.257812 4.257812 -17.898438 13.085938 -17.898438 C 21.914062 -17.898438 21.914062 -4.257812 13.085938 -4.257812 Z M 13.085938 -4.257812 "/></g></g></g><g fill="#ffffff" fill-opacity="1"><g transform="translate(275.738319, 194.988311)"><g><path d="M 7.871094 0 L 12.253906 0 L 12.253906 -9.9375 L 19.96875 -22.066406 L 14.566406 -22.066406 L 10.0625 -14.472656 L 5.554688 -22.066406 L 0.183594 -22.066406 L 7.871094 -9.9375 Z M 7.871094 0 "/></g></g></g><g fill="#ffffff" fill-opacity="1"><g transform="translate(295.763487, 194.988311)"><g><path d="M 0.492188 0 L 5.492188 0 L 6.359375 -2.375 L 13.671875 -2.375 L 14.566406 0 L 19.535156 0 L 10.246094 -22.867188 L 9.785156 -22.867188 Z M 7.960938 -6.511719 L 10.03125 -12.253906 L 12.035156 -6.511719 Z M 7.960938 -6.511719 "/></g></g></g><g fill="#ffffff" fill-opacity="1"><g transform="translate(315.912069, 194.988311)"><g><path d="M 18.394531 -1.359375 L 18.394531 -11.046875 L 13.917969 -11.046875 L 13.917969 -4.414062 C 13.519531 -4.351562 13.085938 -4.289062 12.683594 -4.289062 C 4.167969 -4.289062 3.765625 -17.46875 12.683594 -17.777344 C 15.03125 -17.839844 16.449219 -17.34375 17.3125 -16.972656 L 17.839844 -21.449219 C 17.4375 -21.574219 15.308594 -22.34375 12.683594 -22.25 C -2.625 -21.695312 -1.882812 0.125 12.683594 0.125 C 14.78125 0.125 16.695312 -0.402344 18.394531 -1.359375 Z M 18.394531 -1.359375 "/></g></g></g><g fill="#ffffff" fill-opacity="1"><g transform="translate(336.677761, 194.988311)"><g><path d="M 13.886719 0 L 13.886719 -4.414062 L 6.882812 -4.414062 L 6.882812 -8.828125 L 12.683594 -8.828125 L 12.683594 -13.238281 L 6.882812 -13.238281 L 6.882812 -17.652344 L 13.519531 -17.652344 L 13.519531 -22.066406 L 2.46875 -22.066406 L 2.46875 0 Z M 13.886719 0 "/></g></g></g><g fill="#ffffff" fill-opacity="1"><g transform="translate(352.228885, 194.988311)"><g><path d="M 1.449219 -1.417969 C 4.445312 0.125 7.191406 0.277344 8.425781 0.183594 C 12.5625 -0.03125 15.089844 -2.839844 15.089844 -6.511719 C 15.089844 -10.03125 12.128906 -12.003906 8.703125 -13.269531 C 7.4375 -13.703125 6.359375 -14.257812 6.234375 -15.492188 C 6.140625 -16.726562 6.851562 -17.871094 8.425781 -17.960938 C 9.105469 -17.992188 10.492188 -18.023438 12.929688 -17.035156 L 13.488281 -21.296875 C 10.648438 -22.28125 9.136719 -22.28125 7.992188 -22.222656 C 4.320312 -22.035156 1.757812 -19.195312 1.757812 -15.492188 C 1.757812 -11.789062 4.84375 -10.03125 8.300781 -8.765625 C 9.535156 -8.332031 10.492188 -7.777344 10.585938 -6.511719 C 10.710938 -5.308594 9.597656 -4.382812 8.300781 -4.289062 C 7.285156 -4.199219 4.535156 -4.257812 2.007812 -6.050781 Z M 1.449219 -1.417969 "/></g></g></g><g fill="#ffffff" fill-opacity="1"><g transform="translate(103.751416, 217.86331)"><g><path d="M 10.828125 -13.9375 L 6.71875 -13.9375 L 6.71875 0 L 4.75 0 L 4.75 -13.9375 L 0.640625 -13.9375 L 0.640625 -15.640625 L 10.828125 -15.640625 Z M 10.828125 -13.9375 "/></g></g></g><g fill="#ffffff" fill-opacity="1"><g transform="translate(116.762536, 217.86331)"><g><path d="M 6.40625 -6.328125 L 3.65625 -6.328125 L 3.65625 0 L 1.6875 0 L 1.6875 -15.640625 L 6.0625 -15.640625 C 7.601562 -15.640625 8.765625 -15.238281 9.546875 -14.4375 C 10.335938 -13.644531 10.734375 -12.476562 10.734375 -10.9375 C 10.734375 -9.96875 10.519531 -9.125 10.09375 -8.40625 C 9.664062 -7.6875 9.0625 -7.144531 8.28125 -6.78125 L 11.3125 -0.125 L 11.3125 0 L 9.203125 0 Z M 3.65625 -8.015625 L 6.046875 -8.015625 C 6.867188 -8.015625 7.523438 -8.28125 8.015625 -8.8125 C 8.503906 -9.34375 8.75 -10.050781 8.75 -10.9375 C 8.75 -12.9375 7.84375 -13.9375 6.03125 -13.9375 L 3.65625 -13.9375 Z M 3.65625 -8.015625 "/></g></g></g><g fill="#ffffff" fill-opacity="1"><g transform="translate(129.999208, 217.86331)"><g><path d="M 8.984375 -4.078125 L 3.703125 -4.078125 L 2.484375 0 L 0.46875 0 L 5.5 -15.640625 L 7.1875 -15.640625 L 12.234375 0 L 10.21875 0 Z M 4.21875 -5.78125 L 8.46875 -5.78125 L 6.34375 -12.890625 Z M 4.21875 -5.78125 "/></g></g></g><g fill="#ffffff" fill-opacity="1"><g transform="translate(144.234722, 217.86331)"><g><path d="M 6.15625 -3.015625 L 9.734375 -15.640625 L 11.890625 -15.640625 L 7.03125 0 L 5.3125 0 L 0.453125 -15.640625 L 2.59375 -15.640625 Z M 6.15625 -3.015625 "/></g></g></g><g fill="#ffffff" fill-opacity="1"><g transform="translate(158.115809, 217.86331)"><g><path d="M 9.1875 -7.234375 L 3.65625 -7.234375 L 3.65625 -1.6875 L 10.09375 -1.6875 L 10.09375 0 L 1.6875 0 L 1.6875 -15.640625 L 9.984375 -15.640625 L 9.984375 -13.9375 L 3.65625 -13.9375 L 3.65625 -8.921875 L 9.1875 -8.921875 Z M 9.1875 -7.234375 "/></g></g></g><g fill="#ffffff" fill-opacity="1"><g transform="translate(170.60066, 217.86331)"><g><path d="M 3.65625 -1.6875 L 9.796875 -1.6875 L 9.796875 0 L 1.6875 0 L 1.6875 -15.640625 L 3.65625 -15.640625 Z M 3.65625 -1.6875 "/></g></g></g><g fill="#ffffff" fill-opacity="1"><g transform="translate(182.612939, 217.86331)"><g/></g></g><g fill="#ffffff" fill-opacity="1"><g transform="translate(189.212117, 217.86331)"><g><path d="M 8.984375 -4.078125 L 3.703125 -4.078125 L 2.484375 0 L 0.46875 0 L 5.5 -15.640625 L 7.1875 -15.640625 L 12.234375 0 L 10.21875 0 Z M 4.21875 -5.78125 L 8.46875 -5.78125 L 6.34375 -12.890625 Z M 4.21875 -5.78125 "/></g></g></g><g fill="#ffffff" fill-opacity="1"><g transform="translate(203.447633, 217.86331)"><g><path d="M 11.46875 -1.9375 L 11.125 -1.515625 C 10.132812 -0.359375 8.691406 0.21875 6.796875 0.21875 C 5.097656 0.21875 3.765625 -0.335938 2.796875 -1.453125 C 1.835938 -2.578125 1.347656 -4.164062 1.328125 -6.21875 L 1.328125 -9.296875 C 1.328125 -11.484375 1.765625 -13.125 2.640625 -14.21875 C 3.523438 -15.3125 4.835938 -15.859375 6.578125 -15.859375 C 8.066406 -15.859375 9.234375 -15.441406 10.078125 -14.609375 C 10.921875 -13.773438 11.382812 -12.585938 11.46875 -11.046875 L 9.5 -11.046875 C 9.425781 -12.023438 9.15625 -12.785156 8.6875 -13.328125 C 8.226562 -13.878906 7.53125 -14.15625 6.59375 -14.15625 C 5.46875 -14.15625 4.644531 -13.785156 4.125 -13.046875 C 3.601562 -12.316406 3.332031 -11.148438 3.3125 -9.546875 L 3.3125 -6.34375 C 3.3125 -4.769531 3.609375 -3.5625 4.203125 -2.71875 C 4.804688 -1.882812 5.671875 -1.46875 6.796875 -1.46875 C 7.859375 -1.46875 8.664062 -1.722656 9.21875 -2.234375 L 9.5 -2.5 L 9.5 -6.109375 L 6.65625 -6.109375 L 6.65625 -7.78125 L 11.46875 -7.78125 Z M 11.46875 -1.9375 "/></g></g></g><g fill="#ffffff" fill-opacity="1"><g transform="translate(218.005353, 217.86331)"><g><path d="M 9.1875 -7.234375 L 3.65625 -7.234375 L 3.65625 -1.6875 L 10.09375 -1.6875 L 10.09375 0 L 1.6875 0 L 1.6875 -15.640625 L 9.984375 -15.640625 L 9.984375 -13.9375 L 3.65625 -13.9375 L 3.65625 -8.921875 L 9.1875 -8.921875 Z M 9.1875 -7.234375 "/></g></g></g><g fill="#ffffff" fill-opacity="1"><g transform="translate(230.490204, 217.86331)"><g><path d="M 11.90625 0 L 9.921875 0 L 3.65625 -12.046875 L 3.65625 0 L 1.6875 0 L 1.6875 -15.640625 L 3.65625 -15.640625 L 9.953125 -3.53125 L 9.953125 -15.640625 L 11.90625 -15.640625 Z M 11.90625 0 "/></g></g></g><g fill="#ffffff" fill-opacity="1"><g transform="translate(245.670859, 217.86331)"><g><path d="M 11.5 -4.96875 C 11.40625 -3.289062 10.929688 -2.003906 10.078125 -1.109375 C 9.222656 -0.222656 8.015625 0.21875 6.453125 0.21875 C 4.890625 0.21875 3.644531 -0.375 2.71875 -1.5625 C 1.789062 -2.757812 1.328125 -4.378906 1.328125 -6.421875 L 1.328125 -9.265625 C 1.328125 -11.296875 1.800781 -12.898438 2.75 -14.078125 C 3.695312 -15.265625 4.992188 -15.859375 6.640625 -15.859375 C 8.148438 -15.859375 9.316406 -15.40625 10.140625 -14.5 C 10.972656 -13.59375 11.425781 -12.296875 11.5 -10.609375 L 9.5 -10.609375 C 9.414062 -11.890625 9.148438 -12.800781 8.703125 -13.34375 C 8.253906 -13.882812 7.566406 -14.15625 6.640625 -14.15625 C 5.566406 -14.15625 4.742188 -13.738281 4.171875 -12.90625 C 3.597656 -12.070312 3.3125 -10.847656 3.3125 -9.234375 L 3.3125 -6.375 C 3.3125 -4.789062 3.578125 -3.578125 4.109375 -2.734375 C 4.648438 -1.890625 5.429688 -1.46875 6.453125 -1.46875 C 7.484375 -1.46875 8.222656 -1.71875 8.671875 -2.21875 C 9.117188 -2.726562 9.394531 -3.644531 9.5 -4.96875 Z M 11.5 -4.96875 "/></g></g></g><g fill="#ffffff" fill-opacity="1"><g transform="translate(259.702311, 217.86331)"><g><path d="M 5.765625 -7.78125 L 8.953125 -15.640625 L 11.1875 -15.640625 L 6.734375 -5.828125 L 6.734375 0 L 4.765625 0 L 4.765625 -5.828125 L 0.328125 -15.640625 L 2.5625 -15.640625 Z M 5.765625 -7.78125 "/></g></g></g></svg>